<svg xmlns="http://www.w3.org/2000/svg" width="512" height="512" viewBox="0 0 512 512" version="1.1"><path d="" stroke="none" fill="#74649c" fill-rule="evenodd"/><path d="M 456.500 33.551 C 454.850 34.397, 434.297 54.271, 410.826 77.715 C 368.151 120.340, 368.151 120.340, 364.465 117.103 C 362.437 115.323, 359.674 113.446, 358.324 112.933 C 356.974 112.420, 354.055 112, 351.836 112 C 349.617 112, 346.376 112.677, 344.634 113.504 C 342.891 114.331, 335.402 121.083, 327.991 128.509 C 314.516 142.012, 314.516 142.012, 342.252 169.748 C 369.988 197.484, 369.988 197.484, 383.491 184.009 C 390.917 176.598, 397.669 169.109, 398.496 167.366 C 399.323 165.624, 400 162.383, 400 160.164 C 400 157.945, 399.580 155.026, 399.067 153.676 C 398.554 152.326, 396.682 149.568, 394.907 147.547 C 391.680 143.872, 391.680 143.872, 435.263 100.186 C 473.707 61.651, 478.928 56.050, 479.546 52.687 C 479.931 50.589, 480.012 47.123, 479.725 44.983 C 479.438 42.844, 478.266 39.778, 477.121 38.170 C 475.976 36.562, 473.500 34.516, 471.619 33.623 C 469.737 32.730, 466.241 32.003, 463.849 32.006 C 461.457 32.010, 458.150 32.705, 456.500 33.551 M 280.467 145.543 C 278.798 146.366, 271.155 153.330, 263.482 161.018 C 249.530 174.996, 249.530 174.996, 260.432 185.932 C 269.638 195.166, 271.333 197.353, 271.333 199.989 C 271.333 201.833, 270.469 203.976, 269.222 205.222 C 267.976 206.469, 265.833 207.333, 263.989 207.333 C 261.353 207.333, 259.166 205.637, 249.928 196.428 C 238.989 185.523, 238.989 185.523, 228.256 196.256 C 217.523 206.989, 217.523 206.989, 228.428 217.928 C 237.637 227.166, 239.333 229.353, 239.333 231.989 C 239.333 233.833, 238.469 235.976, 237.222 237.222 C 235.976 238.469, 233.833 239.333, 231.989 239.333 C 229.353 239.333, 227.166 237.637, 217.928 228.428 C 206.989 217.523, 206.989 217.523, 196.256 228.256 C 185.523 238.989, 185.523 238.989, 196.428 249.928 C 205.637 259.166, 207.333 261.353, 207.333 263.989 C 207.333 265.833, 206.469 267.976, 205.222 269.222 C 203.976 270.469, 201.833 271.333, 199.989 271.333 C 197.353 271.333, 195.166 269.637, 185.928 260.428 C 174.989 249.523, 174.989 249.523, 164.256 260.256 C 153.523 270.989, 153.523 270.989, 164.428 281.928 C 173.637 291.166, 175.333 293.353, 175.333 295.989 C 175.333 297.833, 174.469 299.976, 173.222 301.222 C 171.976 302.469, 169.833 303.333, 167.989 303.333 C 165.353 303.333, 163.166 301.638, 153.933 292.433 C 142.999 281.533, 142.999 281.533, 131.532 292.968 C 120.065 304.403, 120.065 304.403, 112.782 304.451 C 106.901 304.491, 104.899 304.929, 102.373 306.730 C 100.654 307.957, 98.516 310.500, 97.623 312.381 C 96.730 314.263, 96 317.691, 96 320 C 96 322.309, 96.682 325.635, 97.515 327.391 C 98.349 329.147, 118.036 349.543, 141.265 372.714 C 178.483 409.839, 183.953 414.928, 187.313 415.545 C 189.411 415.931, 192.877 416.012, 195.017 415.725 C 197.156 415.438, 200.222 414.266, 201.830 413.121 C 203.438 411.976, 205.539 409.383, 206.500 407.359 C 207.811 404.595, 208.100 402.285, 207.657 398.089 C 207.067 392.500, 207.067 392.500, 286.484 313 C 330.850 268.587, 366.363 232.258, 366.950 230.685 C 367.527 229.137, 368 226.055, 368 223.836 C 368 221.617, 367.321 218.371, 366.491 216.623 C 365.661 214.874, 349.799 198.294, 331.241 179.778 C 312.684 161.263, 296.233 145.638, 294.685 145.057 C 293.137 144.476, 289.987 144.010, 287.685 144.023 C 285.383 144.035, 282.135 144.719, 280.467 145.543 M 82.261 374.232 C 64.152 392.341, 64.152 392.341, 60.465 389.103 C 58.437 387.323, 55.674 385.446, 54.324 384.933 C 52.974 384.420, 50.055 384, 47.836 384 C 45.617 384, 42.263 384.730, 40.381 385.623 C 38.500 386.516, 36.024 388.562, 34.879 390.170 C 33.734 391.778, 32.562 394.844, 32.275 396.983 C 31.988 399.123, 32.071 402.589, 32.458 404.687 C 33.075 408.023, 37.429 412.781, 67.278 442.729 C 86.041 461.555, 102.835 477.643, 104.598 478.479 C 106.360 479.316, 109.691 480, 112 480 C 114.309 480, 117.737 479.270, 119.619 478.377 C 121.500 477.484, 123.976 475.438, 125.121 473.830 C 126.266 472.222, 127.438 469.156, 127.725 467.017 C 128.012 464.877, 127.959 461.596, 127.608 459.726 C 127.258 457.856, 125.333 454.413, 123.333 452.075 C 119.695 447.825, 119.695 447.825, 137.987 429.513 C 156.280 411.200, 156.280 411.200, 133.890 388.491 C 121.575 376, 108.996 363.608, 105.935 360.952 C 100.370 356.123, 100.370 356.123, 82.261 374.232" stroke="none" fill="#746c94" fill-rule="evenodd"/></svg>